PathFileType	4	(X/Y/Z)	 s08c0402.trc
DataRate	CameraRate	NumFrames	NumMarkers	Units	OrigDataRate	OrigDataStartFrame	OrigNumFrames
200	200	5	50	mm	200	751	2000
Frame#	Time	racr			lacr			c7			jug			rlel			rdr			llel			ldr			s2			lic			ric			lasi			rasi			rpsi			lpsi			rgt			lgt			rth1			rth2			rth3			rth4			rlfc			rmfc			rsh1			rsh2			rsh3			rsh4			rlmal			rmmal			rcal			rtoe			rmt5			lth1			lth2			lth4			lth3			llfc			lmfc			llmal			lmmal			lcal			lmt5			lsh1			lsh2			lsh3			lsh4			ltoe			SBIKE			LBIKE			RBIKE			
		X1	Y1	Z1	X2	Y2	Z2	X3	Y3	Z3	X4	Y4	Z4	X5	Y5	Z5	X6	Y6	Z6	X7	Y7	Z7	X8	Y8	Z8	X9	Y9	Z9	X10	Y10	Z10	X11	Y11	Z11	X12	Y12	Z12	X13	Y13	Z13	X14	Y14	Z14	X15	Y15	Z15	X16	Y16	Z16	X17	Y17	Z17	X18	Y18	Z18	X19	Y19	Z19	X20	Y20	Z20	X21	Y21	Z21	X22	Y22	Z22	X23	Y23	Z23	X24	Y24	Z24	X25	Y25	Z25	X26	Y26	Z26	X27	Y27	Z27	X28	Y28	Z28	X29	Y29	Z29	X30	Y30	Z30	X31	Y31	Z31	X32	Y32	Z32	X33	Y33	Z33	X34	Y34	Z34	X35	Y35	Z35	X36	Y36	Z36	X37	Y37	Z37	X38	Y38	Z38	X39	Y39	Z39	X40	Y40	Z40	X41	Y41	Z41	X42	Y42	Z42	X43	Y43	Z43	X44	Y44	Z44	X45	Y45	Z45	X46	Y46	Z46	X47	Y47	Z47	X48	Y48	Z48	X49	Y49	Z49	X50	Y50	Z50	
751	3.7550	840.639929	1414.434426	-147.426747	831.732965	1321.739512	-475.827632	819.030242	1436.427782	-317.021903	781.221003	1281.427838	-284.127659	736.208564	1211.836722	30.886586	784.068998	935.688200	-33.161189	619.772203	1102.908643	-530.120598	770.886602	931.729121	-407.822888	255.075099	1265.484943	-196.563871	388.100841	1231.100846	-366.698636	442.774707	1241.780081	-52.631569	419.773986	1199.522278	-322.015323	438.649161	1168.334866	-81.655027	303.904722	1295.945704	-146.234215	286.270759	1307.185428	-236.183437	316.411569	1134.974198	-19.005696	350.156992	1156.399458	-391.868183	335.414772	964.805176	-9.681669	361.615962	879.718836	-10.513001	344.355058	795.286904	-21.302281	397.974746	882.041513	-13.185181	352.182301	673.209420	-33.694657	342.278244	665.317699	-144.699366	260.876952	574.024043	-6.610235	243.347049	487.679966	-26.925535	186.050785	424.450328	-36.955036	274.627433	477.790610	-51.301058	126.183576	319.622711	-48.778847	201.814625	348.211180	-128.668980	56.082666	341.335948	-100.581131	277.858451	142.787818	-98.961991	188.214433	173.688165	-34.080548	435.880276	1060.734429	-397.279588	514.260708	1021.828368	-397.452982	538.176993	1048.383942	-387.812827	562.790802	947.448955	-400.112443	633.050855	840.182160	-378.921148	630.421461	812.453803	-270.462100	327.568447	560.060915	-388.059746	353.593662	565.259495	-299.505412	245.829867	558.153705	-350.802840	425.328872	442.174036	-414.941857	554.361609	745.665460	-402.929192	502.533257	678.639697	-386.492668	424.023815	638.816696	-391.407196	516.927140	664.817927	-351.098590	511.021706	446.277937	-346.485891	-141.887285	941.254106	-222.257369	18.105993	84.161865	-426.221509	10.986651	80.379646	-27.795828	
752	3.7600	840.518845	1413.001051	-147.887160	832.801065	1318.412342	-475.547163	819.941831	1434.304078	-318.259639	780.832938	1279.772586	-284.775638	734.743564	1212.292016	31.567601	783.496421	935.824612	-32.986411	619.054789	1101.923422	-531.403245	770.211893	931.615102	-408.168441	255.259256	1267.215488	-197.663001	388.404373	1229.164548	-367.676444	441.950003	1244.753083	-52.526444	419.360502	1198.860066	-322.581027	438.423651	1171.478229	-81.795305	303.491542	1297.837825	-147.193025	286.309770	1308.783522	-237.816104	317.242536	1137.263740	-18.352266	348.833512	1156.153431	-392.000073	341.385026	965.468372	-9.599584	370.093361	881.315299	-10.627828	355.171965	796.351928	-20.693155	406.328794	884.660681	-14.046260	365.365504	674.464167	-32.159884	354.447633	667.230267	-142.999519	270.570382	578.386191	-5.355482	249.720052	493.044529	-26.245541	190.062563	432.032888	-36.293063	280.549702	481.901660	-50.877688	126.506621	328.931781	-49.002268	198.203636	353.458557	-128.909693	57.019222	354.191203	-100.550635	269.305034	145.485978	-98.958089	181.338534	180.831302	-34.081521	433.682536	1059.161114	-398.349988	511.501240	1019.328260	-398.795377	535.600812	1045.682052	-390.279798	559.016167	944.017366	-400.997885	628.559059	836.237985	-379.537708	626.032169	808.469629	-272.783250	330.081161	549.456884	-389.193684	356.261394	554.991585	-298.784345	248.733286	544.594788	-350.456514	431.942073	434.841621	-415.254576	551.402329	739.099693	-403.183281	501.418927	670.970267	-386.352654	424.163047	628.935072	-391.180822	515.611845	656.995146	-348.462782	517.723102	442.281937	-347.590725	-141.811083	941.303053	-222.577366	18.079587	84.145568	-426.254179	10.950972	80.680341	-27.623367	
753	3.7650	840.520598	1412.194229	-147.887227	833.790752	1315.276856	-475.062957	820.755040	1432.427273	-319.333895	780.704018	1278.362489	-284.913825	733.349722	1212.936919	32.422130	782.712073	935.668933	-33.062858	618.579288	1100.917117	-532.428248	769.484197	931.496913	-408.138208	255.390848	1268.729416	-198.982795	388.792813	1227.220654	-368.734139	441.246213	1247.522256	-51.997494	418.971304	1198.159245	-323.217550	438.363856	1174.331650	-81.921574	303.020958	1299.329415	-148.345733	286.459554	1310.122346	-239.582451	318.391117	1139.352949	-17.733897	347.677506	1156.094168	-392.379359	348.012979	966.199499	-9.831868	379.394354	883.026724	-10.982596	366.887540	797.578247	-19.960083	415.390292	887.326121	-15.496955	378.902598	676.000342	-30.789644	367.128123	669.483029	-141.262462	281.192597	582.771223	-3.977447	257.233084	498.463481	-25.547551	195.613032	439.492778	-35.465175	287.702700	486.357983	-50.360663	128.311539	338.644967	-48.221155	195.049004	358.982529	-129.190127	60.067703	367.431009	-100.419490	260.876170	147.916559	-98.977894	175.140900	188.039965	-33.933561	431.549986	1057.850074	-399.338055	508.803818	1016.914771	-400.285798	533.305014	1043.084319	-392.093443	554.951822	940.746184	-402.942413	623.536171	832.390373	-381.141584	621.182730	804.786941	-274.728729	333.359702	537.861476	-387.644195	359.203667	544.542403	-298.542785	252.102572	531.245800	-350.311794	438.620791	427.405107	-415.407433	547.859809	733.130987	-404.133368	500.243611	663.321141	-386.256616	424.406220	618.892632	-390.729794	515.815060	653.637792	-353.642820	524.138653	437.201587	-347.474698	-141.686899	941.413366	-222.926726	18.062781	84.122598	-426.288964	10.966226	80.729785	-27.684515	
754	3.7700	840.521515	1411.458051	-147.428393	834.755756	1312.305960	-474.335952	821.402892	1430.832561	-320.074090	780.662456	1277.136194	-284.909499	731.914332	1213.636930	33.107607	781.861178	935.294675	-33.358690	618.134352	1100.090839	-533.575451	768.844122	931.326322	-407.979803	255.380471	1270.028977	-200.400736	389.263510	1225.274586	-369.865695	440.536436	1249.961951	-52.219227	418.609161	1197.412693	-323.920332	438.384503	1177.015364	-82.411934	303.047068	1300.755921	-150.120399	288.099150	1310.647629	-241.701293	319.672248	1140.921580	-17.682712	346.475952	1156.127736	-392.882967	355.450251	967.356948	-9.655578	389.337930	884.907242	-11.593168	378.962332	799.084880	-19.326725	424.965913	890.205972	-17.566432	392.655254	677.698424	-29.565945	380.058471	671.739116	-139.992508	292.520923	587.180588	-2.699572	265.767018	503.877548	-24.854417	202.354856	446.843118	-34.521424	295.660973	491.103317	-50.009818	131.470920	348.223680	-47.231764	192.381812	364.774185	-129.510072	63.568273	382.254209	-98.895726	252.740102	150.348847	-98.852931	169.685313	195.224906	-33.728041	429.528167	1056.694441	-400.513627	506.188726	1014.771271	-401.474940	530.992895	1040.644982	-393.768656	551.324605	937.965333	-404.229091	618.039053	828.704457	-383.249777	616.072953	801.435248	-276.260506	336.494037	526.935803	-387.191571	362.486146	534.394053	-298.310088	255.710984	518.509640	-349.409255	444.581431	419.507293	-415.596048	544.484529	726.948737	-405.286837	499.048184	655.959878	-386.426702	424.918036	609.019341	-390.729171	514.708773	646.186735	-352.116567	530.083616	430.993532	-347.516634	-141.554927	941.503126	-223.142838	18.070570	84.137011	-426.311190	10.979913	80.844120	-27.681163	
755	3.7750	840.435974	1410.868629	-147.019531	835.648330	1309.503790	-473.286232	821.897991	1429.517905	-320.509781	780.607962	1276.123032	-284.758178	730.772261	1214.648552	34.862458	781.163845	934.731148	-33.963500	617.897956	1099.145316	-534.190413	768.359980	931.077058	-407.689480	255.188934	1271.271611	-201.962708	389.813815	1223.331769	-371.065084	439.971915	1252.066684	-52.557943	418.276846	1196.613291	-324.684812	438.620095	1179.394474	-83.189640	303.033858	1302.218052	-151.697262	288.172262	1311.719797	-243.526057	321.297569	1142.190735	-17.922030	345.154334	1156.184213	-393.447422	362.942667	968.030342	-10.806513	399.516016	886.938145	-12.507412	391.650454	800.791898	-18.733786	435.113746	893.267829	-18.951177	406.009278	679.659323	-29.129757	393.001075	674.162913	-139.294753	304.225247	591.541099	-1.410831	274.916528	509.158426	-24.423102	209.963841	453.906426	-33.588707	304.032284	495.870554	-50.130159	135.598895	357.395444	-46.382294	190.233142	370.824616	-129.869315	70.382994	394.581131	-99.004836	244.682740	152.864457	-98.791091	164.486750	202.436330	-33.616321	427.430359	1055.639679	-402.078486	503.627155	1012.634784	-402.654992	528.485769	1038.416974	-395.396366	547.811996	935.237579	-405.214705	613.644061	824.789181	-384.257903	611.277558	798.531017	-277.436475	339.754275	516.245028	-386.817820	366.066707	524.196628	-298.133100	259.631402	506.168183	-348.593828	449.821616	410.662950	-415.720095	540.895389	721.166883	-406.640131	497.993838	648.441915	-386.403550	425.401587	599.531889	-390.440130	514.246303	639.594932	-352.703460	535.631492	423.869057	-348.046975	-141.416355	941.573011	-223.323837	18.119076	84.194995	-426.291489	11.062630	80.935056	-27.698661	
